<?xml version="1.0" encoding="UTF-8"?>
<svg version="1.1" xmlns="http://www.w3.org/2000/svg" width="512" height="512">
<path d="M0 0 C0.99868909 -0.00297112 1.99737819 -0.00594224 3.02633059 -0.0090034 C6.35908455 -0.01764635 9.69180239 -0.01919493 13.02456665 -0.02069092 C15.42015662 -0.02532233 17.81574585 -0.03034742 20.21133423 -0.03573608 C26.71186048 -0.04883371 33.21237985 -0.05533771 39.71291685 -0.05974674 C43.78023756 -0.06251761 47.84755591 -0.06675656 51.91487503 -0.07125092 C63.19913521 -0.08343966 74.48339352 -0.09373856 85.76766014 -0.09712601 C86.48888342 -0.09734557 87.2101067 -0.09756514 87.95318524 -0.09779136 C88.67603937 -0.09800964 89.39889351 -0.09822791 90.14365232 -0.09845281 C91.60818887 -0.09889626 93.07272542 -0.09934282 94.53726196 -0.09979248 C95.2637076 -0.10001391 95.99015323 -0.10023534 96.73861237 -0.10046348 C108.48858398 -0.10440477 120.23849332 -0.12184006 131.98844092 -0.145152 C144.08217627 -0.16895013 156.17588049 -0.18133175 168.26963961 -0.18249393 C175.04751456 -0.18340615 181.82530843 -0.18904286 188.60316086 -0.20731354 C194.98736375 -0.22388814 201.37141365 -0.2259044 207.75563049 -0.21717453 C210.08628883 -0.21640908 212.41695571 -0.22068117 214.74759293 -0.23063278 C258.07962913 -0.40465983 296.27158717 14.14096113 327.37026978 44.66778564 C335.82133285 53.25263113 342.72223089 62.77794547 348.81997681 73.14044189 C349.16657349 73.72519287 349.51317017 74.30994385 349.87026978 74.91241455 C362.01010239 95.68527045 368.98307225 119.22610484 368.9604187 143.32046509 C368.96487538 144.81849873 368.96487538 144.81849873 368.9694221 146.34679568 C368.97806505 149.67954963 368.97961363 153.01226748 368.98110962 156.34503174 C368.98574103 158.7406217 368.99076612 161.13621093 368.99615479 163.53179932 C369.00925242 170.03232557 369.01575642 176.53284494 369.02016544 183.03338194 C369.02293631 187.10070264 369.02717527 191.168021 369.03166962 195.23534012 C369.04385836 206.5196003 369.05415726 217.80385861 369.05754471 229.08812523 C369.05776427 229.80934851 369.05798384 230.53057179 369.05821006 231.27365033 C369.05842834 231.99650446 369.05864662 232.7193586 369.05887151 233.46411741 C369.05931496 234.92865396 369.05976152 236.3931905 369.06021118 237.85772705 C369.06043261 238.58417268 369.06065404 239.31061832 369.06088218 240.05907746 C369.06482347 251.80904907 369.08225876 263.55895841 369.1055707 275.308906 C369.12936883 287.40264135 369.14175045 299.49634558 369.14291263 311.5901047 C369.14382485 318.36797965 369.14946156 325.14577352 369.16773224 331.92362595 C369.18430684 338.30782883 369.1863231 344.69187874 369.17759323 351.07609558 C369.17682778 353.40675392 369.18109987 355.7374208 369.19105148 358.06805801 C369.36507853 401.40009422 354.81945758 439.59205226 324.29263306 470.69073486 C315.70778757 479.14179794 306.18247323 486.04269597 295.81997681 492.14044189 C295.23522583 492.48703857 294.65047485 492.83363525 294.04800415 493.19073486 C273.27514825 505.33056748 249.73431386 512.30353734 225.63995361 512.28088379 C224.64126452 512.28385491 223.64257542 512.28682603 222.61362302 512.28988719 C219.28086907 512.29853014 215.94815122 512.30007872 212.61538696 512.30157471 C210.219797 512.30620611 207.82420777 512.31123121 205.42861938 512.31661987 C198.92809313 512.3297175 192.42757376 512.3362215 185.92703676 512.34063053 C181.85971606 512.3434014 177.7923977 512.34764035 173.72507858 512.3521347 C162.4408184 512.36432345 151.15656009 512.37462235 139.87229347 512.3780098 C138.79045855 512.37833915 138.79045855 512.37833915 137.68676838 512.37867515 C136.96391424 512.37889343 136.2410601 512.3791117 135.49630129 512.3793366 C134.03176474 512.37978005 132.5672282 512.38022661 131.10269165 512.38067627 C130.37624602 512.3808977 129.64980038 512.38111913 128.90134124 512.38134727 C117.15136963 512.38528855 105.40146029 512.40272385 93.6515127 512.42603579 C81.55777735 512.44983392 69.46407312 512.46221554 57.370314 512.46337771 C50.59243905 512.46428994 43.81464518 512.46992664 37.03679276 512.48819733 C30.65258987 512.50477193 24.26853996 512.50678819 17.88432312 512.49805832 C15.55366478 512.49729287 13.2229979 512.50156496 10.89236069 512.51151657 C-32.43967552 512.68554362 -70.63163355 498.13992266 -101.73031616 467.61309814 C-110.18137924 459.02825266 -117.08227727 449.50293832 -123.18002319 439.14044189 C-123.52661987 438.55569092 -123.87321655 437.97093994 -124.23031616 437.36846924 C-139.15366328 411.83265263 -143.96888288 384.22270078 -143.82699585 354.93341064 C-143.83379502 352.5269607 -143.84271086 350.12051597 -143.85354614 347.71408081 C-143.87607264 341.2594098 -143.86761464 334.80514453 -143.85165071 328.35046768 C-143.84267249 324.30057544 -143.84447118 320.25073325 -143.84910202 316.20083618 C-143.84986819 315.52315191 -143.85063435 314.84546765 -143.85142373 314.14724749 C-143.85302277 312.7694531 -143.85464384 311.39165874 -143.85628669 310.0138644 C-143.87045789 297.17115175 -143.8542884 284.32861914 -143.82728486 271.48593605 C-143.80495393 260.5272569 -143.80883651 249.56884283 -143.83187866 238.61016846 C-143.85879081 225.80542442 -143.86908541 213.00083715 -143.85381734 200.19606876 C-143.85222502 198.82406174 -143.85065316 197.45205468 -143.84910202 196.08004761 C-143.84833064 195.40544076 -143.84755927 194.73083391 -143.84676451 194.03578442 C-143.84249339 189.33985864 -143.8498857 184.64406472 -143.86149979 179.94815063 C-143.87611257 173.59803788 -143.86562045 167.2484178 -143.8370285 160.89835739 C-143.83050645 158.58998806 -143.83215941 156.2815761 -143.84334183 153.97322464 C-144.02984188 111.50758545 -129.37532516 73.193066 -99.75082397 42.66778564 C-73.70742027 16.77431011 -36.88675524 -0.03468097 0 0 Z " fill="#7310C8" transform="translate(143.18002319335938,-0.14044189453125)"/>
<path d="M0 0 C1.46002698 0.00056573 2.92005452 0.00024441 4.38008118 -0.00088501 C8.3007252 -0.00145323 12.22124407 0.01021392 16.14185929 0.02426291 C20.25510394 0.0368599 24.3683522 0.03794777 28.48161316 0.04031372 C36.25147078 0.04650235 44.02127138 0.06287733 51.79110402 0.0830127 C60.64491702 0.10545368 69.4987329 0.11638565 78.35256732 0.12640357 C96.54782781 0.14724622 114.74301024 0.1838893 132.93823242 0.22705078 C132.93823242 21.01705078 132.93823242 41.80705078 132.93823242 63.22705078 C126.3545874 63.22535889 126.3545874 63.22535889 119.63793945 63.22363281 C105.08534092 63.22426225 90.53294948 63.25753495 75.98044014 63.30732918 C67.16308587 63.33671214 58.34597061 63.35518971 49.52856445 63.34716797 C41.83512343 63.34019734 34.14205303 63.35453004 26.44870269 63.39348686 C22.38240872 63.41335876 18.31669501 63.42321375 14.25037003 63.40747452 C-10.02540815 63.20709368 -10.02540815 63.20709368 -33.06176758 70.22705078 C-33.66784725 70.50610386 -34.27392693 70.78515694 -34.89837265 71.07266617 C-57.02778965 81.32719025 -72.19328849 99.16062352 -80.87036133 121.65673828 C-83.77525833 130.36190502 -84.39861649 137.80238115 -84.37426758 146.97705078 C-84.39038086 148.17587891 -84.40649414 149.37470703 -84.4230957 150.60986328 C-84.43490376 172.38392037 -75.30311942 192.09186324 -60.52270508 207.85595703 C-41.83787216 225.85864526 -20.06002768 232.9968136 5.31323242 232.93408203 C7.2185217 232.94723204 9.12379714 232.96254623 11.02905273 232.97990417 C15.98717763 233.01938108 20.9449348 233.02992027 25.90319824 233.03393555 C31.88248794 233.04499806 37.86158804 233.09288213 43.84072876 233.1344223 C52.8733925 233.19314059 61.90505406 233.2057826 70.93823242 233.22705078 C70.93823242 212.43705078 70.93823242 191.64705078 70.93823242 170.22705078 C46.51823242 170.22705078 22.09823242 170.22705078 -3.06176758 170.22705078 C-12.26741411 151.81575772 -12.26741411 151.81575772 -14.91333008 145.93798828 C-15.37441666 144.92304794 -15.37441666 144.92304794 -15.84481812 143.88760376 C-16.47945383 142.48903861 -17.1126654 141.08982626 -17.74438477 139.68994141 C-18.69043008 137.59393635 -19.6413561 135.50019853 -20.59301758 133.40673828 C-21.22090653 132.02145066 -21.84852012 130.63603819 -22.47583008 129.25048828 C-22.74787262 128.65110443 -23.01991516 128.05172058 -23.30020142 127.43417358 C-26.31849265 120.73771774 -29.16656216 113.98253009 -32.06176758 107.22705078 C22.71823242 107.22705078 77.49823242 107.22705078 133.93823242 107.22705078 C133.93823242 169.59705078 133.93823242 231.96705078 133.93823242 296.22705078 C110.34323242 296.26830078 86.74823242 296.30955078 62.43823242 296.35205078 C55.01387695 296.37025879 47.58952148 296.3884668 39.94018555 296.40722656 C30.80834961 296.41625977 30.80834961 296.41625977 26.52062988 296.41793823 C23.55380199 296.41978634 20.58704714 296.42721994 17.62023926 296.4382019 C13.81597979 296.45209353 10.01182394 296.45600159 6.20754147 296.45319533 C4.17942623 296.45405324 2.15132199 296.46468899 0.12323761 296.47590828 C-12.5736326 296.44768823 -25.17255046 295.27383514 -37.37426758 291.60205078 C-38.25252197 291.34190186 -39.13077637 291.08175293 -40.03564453 290.8137207 C-60.80444671 284.4584337 -79.79692627 274.76158983 -96.06176758 260.22705078 C-97.51969727 258.96634766 -97.51969727 258.96634766 -99.00708008 257.68017578 C-125.80461218 234.18291704 -145.18481134 199.08323325 -148.06176758 163.22705078 C-149.87305233 132.77231016 -145.01903393 103.9227639 -130.06176758 77.22705078 C-129.69067871 76.56463379 -129.31958984 75.9022168 -128.93725586 75.21972656 C-122.80844846 64.48068538 -115.43532624 55.29216281 -107.06176758 46.22705078 C-106.39918945 45.48197266 -105.73661133 44.73689453 -105.05395508 43.96923828 C-78.60098094 15.6182929 -38.25945332 -0.21093247 0 0 Z " fill="#FEFEFE" transform="translate(263.061767578125,107.77294921875)"/>
</svg>
