<?xml version="1.0" encoding="UTF-8"?>
<svg version="1.1" xmlns="http://www.w3.org/2000/svg" width="512" height="512">
<path d="M0 0 C1.01790619 0.00215515 2.03581238 0.0043103 3.08456421 0.00653076 C17.69363523 0.05620146 32.02575853 0.30709809 46.375 3.3125 C47.34985352 3.51117676 48.32470703 3.70985352 49.32910156 3.91455078 C97.7109774 14.03517194 141.69928269 35.9516877 177.375 70.3125 C178.3640332 71.26068604 178.3640332 71.26068604 179.37304688 72.22802734 C188.86130305 81.37247479 197.6012044 90.66984009 205.375 101.3125 C206.23306152 102.46355017 207.09113451 103.61459177 207.94921875 104.765625 C213.98736829 112.95680614 219.34595521 121.47054105 224.375 130.3125 C224.73948242 130.94430176 225.10396484 131.57610352 225.47949219 132.22705078 C247.08534998 169.97532572 256.85198095 212.74189997 256.6875 255.9375 C256.68534485 256.95540619 256.6831897 257.97331238 256.68096924 259.02206421 C256.63129854 273.63113523 256.38040191 287.96325853 253.375 302.3125 C253.07698486 303.77478027 253.07698486 303.77478027 252.77294922 305.26660156 C243.72170074 348.53631524 225.33729329 388.73769334 196.375 422.3125 C195.74078125 423.05757813 195.1065625 423.80265625 194.453125 424.5703125 C182.64198485 438.07529833 169.89139772 450.74668743 155.375 461.3125 C154.22505169 462.16899066 153.07531411 463.02576433 151.92578125 463.8828125 C143.73565742 469.92284209 135.23120382 475.30617614 126.375 480.3125 C125.66778809 480.7146875 124.96057617 481.116875 124.23193359 481.53125 C98.02725553 496.28470851 69.08953614 505.81420334 39.375 510.3125 C38.25617432 510.48982666 37.13734863 510.66715332 35.98461914 510.84985352 C24.26264053 512.53126341 12.64001024 512.66984341 0.8125 512.625 C-0.71810562 512.62176727 -0.71810562 512.62176727 -2.27963257 512.61846924 C-16.90710524 512.56883352 -31.25763838 512.32169712 -45.625 509.3125 C-47.08728027 509.01448486 -47.08728027 509.01448486 -48.57910156 508.71044922 C-91.84881524 499.65920074 -132.05019334 481.27479329 -165.625 452.3125 C-166.37007813 451.67828125 -167.11515625 451.0440625 -167.8828125 450.390625 C-181.38779833 438.57948485 -194.05918743 425.82889772 -204.625 411.3125 C-205.48149066 410.16255169 -206.33826433 409.01281411 -207.1953125 407.86328125 C-213.23534209 399.67315742 -218.61867614 391.16870382 -223.625 382.3125 C-224.0271875 381.60528809 -224.429375 380.89807617 -224.84375 380.16943359 C-237.8691741 357.03404164 -246.61801461 331.86287591 -251.9375 305.875 C-252.08485596 305.15610596 -252.23221191 304.43721191 -252.3840332 303.6965332 C-255.35789088 288.05024391 -255.99800362 272.57681954 -255.9375 256.6875 C-255.93534485 255.66959381 -255.9331897 254.65168762 -255.93096924 253.60293579 C-255.88129854 238.99386477 -255.63040191 224.66174147 -252.625 210.3125 C-252.42632324 209.33764648 -252.22764648 208.36279297 -252.02294922 207.35839844 C-241.90232806 158.9765226 -219.9858123 114.98821731 -185.625 79.3125 C-184.99287598 78.65314453 -184.36075195 77.99378906 -183.70947266 77.31445312 C-174.56502521 67.82619695 -165.26765991 59.0862956 -154.625 51.3125 C-153.47394983 50.45443848 -152.32290823 49.59636549 -151.171875 48.73828125 C-142.98224019 42.70072604 -134.47961724 37.31792698 -125.625 32.3125 C-124.91778809 31.9103125 -124.21057617 31.508125 -123.48193359 31.09375 C-100.34654164 18.0683259 -75.17537591 9.31948539 -49.1875 4 C-48.46860596 3.85264404 -47.74971191 3.70528809 -47.0090332 3.5534668 C-31.36274391 0.57960912 -15.88931954 -0.06050362 0 0 Z " fill="#03CCBF" transform="translate(255.625,-0.3125)"/>
<path d="M0 0 C2.59323519 0.02148416 5.1837019 0.00002766 7.77685547 -0.02539062 C45.37951514 -0.08840007 80.19690897 16.20217424 106.84326172 42.20507812 C117.62795081 53.54585275 136.09326172 76.97879246 136.09326172 93.52148438 C125.52325792 93.77667446 114.95398974 93.97196044 104.38152981 94.09141827 C99.47175025 94.14876312 94.56408185 94.22649056 89.65551758 94.35131836 C84.9155777 94.47109956 80.17766372 94.53665949 75.43632698 94.56513405 C73.63037269 94.5854158 71.82452602 94.62502774 70.01943779 94.684515 C55.84972581 95.13278648 55.84972581 95.13278648 51.46853638 91.11367798 C49.6704548 88.30801498 48.35589846 85.59765957 47.09326172 82.52148438 C39.13123565 71.3316099 27.23507735 66.68783139 14.22216797 63.90820312 C-7.81112585 61.18498703 -28.50514916 65.3688595 -46.21923828 79.14648438 C-60.99968739 92.15564131 -69.29772736 111.07200823 -70.90673828 130.52148438 C-71.60993961 145.83149209 -72.18695126 160.95775968 -66.90673828 175.52148438 C-66.53291016 176.58882812 -66.15908203 177.65617188 -65.77392578 178.75585938 C-58.84522438 196.83472264 -46.81148222 210.02174046 -29.21533203 218.23632812 C-16.64773501 223.11795672 -4.29551466 224.36509918 9.09326172 223.52148438 C10.23537109 223.45058594 11.37748047 223.3796875 12.55419922 223.30664062 C26.33864825 221.79205301 38.74706463 215.75201552 48.09326172 205.52148438 C48.73650391 204.8228125 49.37974609 204.12414062 50.04248047 203.40429688 C55.83977521 196.53808662 59.9170533 188.22631804 62.09326172 179.52148438 C36.02326172 179.52148438 9.95326172 179.52148438 -16.90673828 179.52148438 C-16.90673828 162.36148438 -16.90673828 145.20148438 -16.90673828 127.52148438 C33.58326172 127.52148438 84.07326172 127.52148438 136.09326172 127.52148438 C136.09326172 186.29936481 136.09326172 186.29936481 129.90576172 200.89648438 C129.45402588 201.97192505 129.45402588 201.97192505 128.99316406 203.0690918 C117.2146491 230.40407888 96.37609549 253.11455275 71.09326172 268.52148438 C70.51801758 268.87839355 69.94277344 269.23530273 69.35009766 269.60302734 C61.27953527 274.53195085 52.85459138 277.87146959 43.90576172 280.89648438 C42.920354 281.2305127 41.93494629 281.56454102 40.91967773 281.90869141 C27.91783287 286.11596671 15.39632292 286.96266173 1.84326172 286.95898438 C1.00688171 286.96005188 0.17050171 286.96111938 -0.69122314 286.96221924 C-14.90427622 286.93610415 -28.23454983 285.65545047 -41.90673828 281.52148438 C-43.01251221 281.19253174 -43.01251221 281.19253174 -44.140625 280.85693359 C-80.46288222 269.61412966 -109.0760088 243.78946593 -126.875 210.72265625 C-142.55988613 180.84512093 -146.56993312 143.25521752 -138.90673828 110.52148438 C-138.62410976 109.17932601 -138.34287285 107.83687388 -138.06298828 106.49414062 C-135.90040816 96.59456852 -132.33985282 87.61365009 -127.90673828 78.52148438 C-127.36017578 77.39871094 -126.81361328 76.2759375 -126.25048828 75.11914062 C-109.7282197 42.97085859 -81.14311156 19.36643625 -47.25830078 7.21289062 C-43.82767644 6.18530268 -40.390973 5.349584 -36.90673828 4.52148438 C-36.24163239 4.3557341 -35.57652649 4.18998383 -34.89126587 4.01921082 C-23.18045366 1.12476312 -12.05741996 -0.11818772 0 0 Z " fill="#FEFEFE" transform="translate(258.90673828125,112.478515625)"/>
</svg>
