<?xml version="1.0" encoding="UTF-8"?>
<svg version="1.1" xmlns="http://www.w3.org/2000/svg" width="512" height="512">
<path d="M0 0 C50.61718107 -0.09165724 101.23435372 -0.16209032 151.85160153 -0.20426132 C157.83433605 -0.20926384 163.81707041 -0.21444116 169.79980469 -0.21972656 C171.58630424 -0.22130043 171.58630424 -0.22130043 173.40889469 -0.22290608 C192.6656577 -0.24028717 211.9223727 -0.27181217 231.17910728 -0.30861118 C250.95441787 -0.34608458 270.7297034 -0.36824936 290.50504804 -0.37635398 C302.69670688 -0.38182849 314.88822997 -0.39908736 327.07984701 -0.43166587 C335.45254256 -0.45289282 343.82516846 -0.45918161 352.19788894 -0.45400551 C357.02059417 -0.45145642 361.84306305 -0.45522248 366.66572571 -0.4768219 C408.50137432 -0.654745 442.64767772 6.3837998 474 36 C475.12535156 37.02867188 475.12535156 37.02867188 476.2734375 38.078125 C490.2220685 51.29261753 500.2833048 69.09019565 506.4375 87.1875 C506.66018555 87.8381543 506.88287109 88.48880859 507.11230469 89.15917969 C511.28034663 102.3697533 512.44263536 115.37454902 512.36076355 129.10961914 C512.36207528 130.77334967 512.36470843 132.43707958 512.36853105 134.10080624 C512.37517582 138.62536756 512.36332723 143.14971208 512.34819686 147.67424583 C512.33515302 152.57107865 512.33963182 157.46790078 512.34190369 162.36474609 C512.34347118 170.83320984 512.33411701 179.30160384 512.31719017 187.77005005 C512.29273332 200.01375393 512.28498808 212.25742435 512.2812262 224.50115001 C512.27467217 244.36927534 512.25473954 264.23736355 512.22631836 284.10546875 C512.19875059 303.39713354 512.17753033 322.68878822 512.16479492 341.98046875 C512.16400675 343.17106341 512.16321858 344.36165806 512.16240653 345.58833134 C512.15849121 351.56162963 512.15470013 357.53492799 512.15097082 363.50822639 C512.11990758 413.0055099 512.06710045 462.50275313 512 512 C461.38281893 512.09165724 410.76564628 512.16209032 360.14839847 512.20426132 C354.16566395 512.20926384 348.18292959 512.21444116 342.20019531 512.21972656 C341.00919561 512.2207758 339.81819591 512.22182505 338.59110531 512.22290608 C319.3343423 512.24028717 300.0776273 512.27181217 280.82089272 512.30861118 C261.04558213 512.34608458 241.2702966 512.36824936 221.49495196 512.37635398 C209.30329312 512.38182849 197.11177003 512.39908736 184.92015299 512.43166587 C176.54745744 512.45289282 168.17483154 512.45918161 159.80211106 512.45400551 C154.97940583 512.45145642 150.15693695 512.45522248 145.33427429 512.4768219 C102.80054642 512.65771387 67.1473623 504.9578557 35.75 474.3125 C11.5113713 449.65414001 -0.37551899 417.61595777 -0.24050903 383.37139893 C-0.24138263 381.71112145 -0.24313643 380.05084424 -0.24568737 378.39056849 C-0.25013472 373.85701534 -0.24219337 369.32355766 -0.23213124 364.79001665 C-0.22346118 359.89038644 -0.22641941 354.99076122 -0.22793579 350.09112549 C-0.2289824 341.61169417 -0.22272927 333.13229373 -0.21146011 324.65287018 C-0.19517763 312.39318446 -0.1899943 300.13351361 -0.18748413 287.87381825 C-0.18311134 267.98130007 -0.16981352 248.08879832 -0.15087891 228.19628906 C-0.13250934 208.87727948 -0.11835811 189.55827437 -0.10986328 170.23925781 C-0.10907511 168.45178949 -0.10907511 168.45178949 -0.10827102 166.62821069 C-0.10566086 160.64982983 -0.10313347 154.67144894 -0.10064721 148.69306803 C-0.07992766 99.12870066 -0.04471346 49.56435113 0 0 Z " fill="#2296FF" transform="translate(0,0)"/>
<path d="M0 0 C1.78784157 -0.00618599 1.78784157 -0.00618599 3.61180115 -0.01249695 C4.91587418 -0.00171112 6.2199472 0.00907471 7.5635376 0.02018738 C8.95327231 0.02103377 10.34300837 0.02055827 11.73274231 0.01885986 C15.50316392 0.01799895 19.27329935 0.03564004 23.04365444 0.05658174 C26.98477669 0.07533263 30.92590546 0.07709772 34.86706543 0.08065796 C42.32913982 0.0899831 49.79108239 0.1146032 57.25309873 0.14470643 C65.74877907 0.17823586 74.24446571 0.19473277 82.74019575 0.20979273 C100.21556564 0.24115237 117.69080721 0.29392196 135.16607666 0.36076355 C134.84939026 1.86391365 134.84939026 1.86391365 134.52630615 3.39743042 C134.24908695 4.74022011 133.97212305 6.08306252 133.69537354 7.4259491 C133.55621521 8.08308647 133.41705688 8.74022385 133.27368164 9.41727448 C131.92788675 15.99675837 131.62810322 22.46145717 131.66607666 29.17326355 C131.67252197 30.3859491 131.67896729 31.59863464 131.68560791 32.84806824 C132.07634796 52.18455935 138.64325685 70.69332743 151.50201416 85.34513855 C153.16607666 87.36076355 153.16607666 87.36076355 154.14263916 89.50138855 C155.45765527 91.89050178 156.71484505 92.24250095 159.16607666 93.36076355 C160.60195758 94.54620012 162.01660521 95.75755609 163.41607666 96.98576355 C178.988605 109.56269539 198.08777078 114.56346412 217.85357666 114.54826355 C218.82802734 114.54818298 219.80247803 114.54810242 220.80645752 114.54801941 C227.76094849 114.49296761 234.37302258 113.91443368 241.16607666 112.36076355 C242.83223293 112.02488833 244.49884044 111.69123637 246.16607666 111.36076355 C246.25954215 129.77159868 246.33006668 148.18237218 246.37332535 166.59339333 C246.3939455 175.1420701 246.42205557 183.6905994 246.46783447 192.23918152 C246.50771907 199.69063967 246.53351345 207.14199102 246.54243064 214.59355295 C246.54764268 218.53869052 246.55988118 222.48352257 246.58899689 226.42856216 C246.61619185 230.14352583 246.62451356 233.85805874 246.61850739 237.57311249 C246.62012869 239.58304341 246.64163013 241.59292765 246.66375732 243.60273743 C246.612467 254.82460895 246.612467 254.82460895 242.16607666 259.36076355 C237.50494583 263.07731607 233.11423131 262.7855366 227.41792297 262.7484436 C226.42966457 262.75382914 225.44140617 262.75921468 224.42320055 262.76476341 C221.10828101 262.77908274 217.79375856 262.77192933 214.4788208 262.76481628 C212.10360899 262.77051775 209.72839992 262.77748114 207.35319519 262.78561401 C201.56924639 262.80171799 195.78542233 262.80364107 190.00145585 262.79840111 C185.30005133 262.79435906 180.59867891 262.79580338 175.89727592 262.80114937 C174.89343448 262.802272 174.89343448 262.802272 173.8693134 262.80341731 C172.50976145 262.8049488 171.15020951 262.80648714 169.79065757 262.80803228 C157.04212897 262.82175904 144.29366174 262.81631841 131.54513454 262.80484707 C119.88383103 262.79491444 108.22268619 262.80785549 96.56140716 262.83178126 C84.58533195 262.85616765 72.60933065 262.86578128 60.6332311 262.85912853 C53.91045514 262.85563528 47.18780121 262.85787529 40.46504402 262.87537956 C34.14405919 262.89081818 27.82337787 262.88692711 21.50240517 262.86807442 C19.1812267 262.86438005 16.86002589 262.86752153 14.53886795 262.87796021 C11.3726309 262.8911133 8.20740707 262.87967221 5.04121399 262.86196899 C4.12049215 262.871574 3.19977031 262.88117901 2.25114781 262.89107507 C-3.24787223 262.82771964 -6.55789482 262.15578866 -10.83392334 258.36076355 C-14.69647445 253.90294895 -14.25780982 249.14372217 -14.22160339 243.53668213 C-14.22698893 242.54025662 -14.23237447 241.54383112 -14.2379232 240.5172109 C-14.25224336 237.17465336 -14.24508891 233.83248957 -14.23797607 230.48991394 C-14.2436775 228.09499797 -14.25064087 225.70008473 -14.2587738 223.30517578 C-14.27487818 217.47310034 -14.27680076 211.64114861 -14.2715609 205.80905563 C-14.26751894 201.06855891 -14.26896306 196.32809401 -14.27430916 191.5875988 C-14.27505758 190.91282045 -14.275806 190.23804209 -14.2765771 189.54281591 C-14.27810859 188.17198995 -14.27964693 186.80116401 -14.28119207 185.43033808 C-14.294919 172.5759394 -14.28947808 159.72160159 -14.27800686 146.8672043 C-14.2680742 135.1089034 -14.28101529 123.35075986 -14.30494105 111.59248323 C-14.32932708 99.51696706 -14.33894116 87.4415242 -14.33228832 75.3659839 C-14.32879499 68.58731697 -14.3310356 61.80877107 -14.34853935 55.03012276 C-14.36397746 48.65660913 -14.36008745 42.28339654 -14.34123421 35.90989494 C-14.33753971 33.56936578 -14.34068172 31.22881447 -14.35112 28.88830566 C-14.36427212 25.6957971 -14.35283282 22.50429356 -14.33512878 19.31182861 C-14.34953629 17.91907301 -14.34953629 17.91907301 -14.36423486 16.49818093 C-14.28890192 9.90608107 -12.75406103 6.22990204 -7.94854355 1.50831127 C-5.16606441 -0.0016656 -3.16133848 -0.00843774 0 0 Z " fill="#FEFEFF" transform="translate(124.83392333984375,138.6392364501953)"/>
<path d="M0 0 C11.32200079 9.63900068 19.8681858 23.01928849 21.58862305 38.03369141 C22.6984077 55.31722283 18.28707506 70.74640582 7.39453125 84.421875 C-3.41049556 96.18913054 -17.91422639 101.94904637 -33.57421875 103.3046875 C-50.16756001 103.7284194 -64.50065345 98.62738021 -76.55712891 87.19848633 C-87.05075015 76.8044549 -93.61510735 62.82816093 -93.89013672 48.00268555 C-93.95746487 30.45974065 -88.87843399 16.17973675 -76.44140625 3.59375 C-55.37410202 -16.23603426 -22.88534857 -17.58593895 0 0 Z " fill="#FEFEFF" transform="translate(379.6484375,123.03515625)"/>
</svg>
